# xmcd
#
# Track frame offsets: 
#        150
#        18638
#        35597
#        51527
#        70265
#        85860
#        104273
#        125360
#        138240
#        156527
#        177330
#        198643
#
# Disc length: 2899 seconds
#
# Revision: 0
# Processed by: cddbd v1.5.2PL0 Copyright (c) Steve Scherf et al.
# Submitted via: ExactAudioCopy v1.3
#
DISCID=b00b510c
DTITLE=Vivian Vance Kelly - Chicago Here I Come
DYEAR=2018
DGENRE=Blues
TTITLE0=Blues Woman
TTITLE1=People in My Business
TTITLE2=Four Corner Room
TTITLE3=Husband Cheating on Us
TTITLE4=Is It Love?
TTITLE5=Gotta Relieve My Soul
TTITLE6=Down This Road Again
TTITLE7=Clean up Woman
TTITLE8=Clean up Woman
TTITLE9=Soft Hearted Woman (Live)
TTITLE10=As Simple as This
TTITLE11=Stand by Me
EXTD=
EXTT0=
EXTT1=
EXTT2=
EXTT3=
EXTT4=
EXTT5=
EXTT6=
EXTT7=
EXTT8=
EXTT9=
EXTT10=
EXTT11=
PLAYORDER=
